<svg enable-background="new 0 0 400 140" viewBox="0 0 400 140" xmlns="http://www.w3.org/2000/svg"><g fill="#c00"><path d="m346.6 121.5v18.1h32.7c6.7 0 18.2-4.9 18.6-18.6 0-.6 0-6.5 0-7 0-11.7-9.6-18.6-18.6-18.6-4.2 0-16.3 0-16.3 0v-8.4h32.3v-18.2s-22.2 0-31 0c-8 0-18.7 6.6-18.7 18.9v6.3c0 12.3 10.6 18.6 18.7 18.6 22.5.1-5.4 0 15.4 0v8.8"/><path d="m171.4 117.1s17.5-1.5 17.5-24.1-21.2-24.7-21.2-24.7h-38.2v71.3h19.2v-17.2l16.6 17.2h28.4zm-7.4-14.6h-15.3v-16.3h15.4s4.3 1.6 4.3 8.1-4.4 8.2-4.4 8.2z"/><path d="m236.3 68.8c-4.9 0-5.6 0-19.5 0s-18.6 12.6-18.6 18.6v52.2h19.5v-12.5h18.3v12.5h18.9s0-38.5 0-52.2c0-15.2-13.8-18.6-18.6-18.6zm-.3 38.1h-18.4v-17.3s0-3.9 6.1-3.9h6.7c5.4 0 5.5 3.9 5.5 3.9v17.3z"/><path d="m263.8 68.8h20.3v70.8h-20.3z"/><path d="m312.6 121.3v-52.5h-20.2v52.5 18.3h20.2 27.3v-18.3z"/><path d="m9 139.6h79s-15.1-68.9 34.9-96.8c10.9-5.3 45.6-25.1 102.4 16.9 1.8-1.5 3.5-2.7 3.5-2.7s-52-51.9-109.9-46.1c-29.1 2.6-64.9 29.1-85.9 64.1s-24 64.6-24 64.6z"/><path d="m9 139.6h79s-15.1-68.9 34.9-96.8c10.9-5.3 45.6-25.1 102.4 16.9 1.8-1.5 3.5-2.7 3.5-2.7s-52-51.9-109.9-46.1c-29.1 2.6-64.9 29.1-85.9 64.1s-24 64.6-24 64.6z"/><path d="m9 139.6h79s-15.1-68.9 34.9-96.8c10.9-5.3 45.6-25.1 102.4 16.9 1.8-1.5 3.5-2.7 3.5-2.7s-52-51.9-109.9-46.1c-29.2 2.6-65 29.1-86 64.1s-23.9 64.6-23.9 64.6z"/><path d="m173.6 16.5.4-6.7c-.9-.5-3.4-1.7-9.7-3.5l-.4 6.6c3.3 1.1 6.5 2.3 9.7 3.6z"/><path d="m164.1 37.7-.4 6.3c3.3.1 6.6.5 9.9 1.2l.4-6.2c-3.4-.7-6.7-1.1-9.9-1.3z"/><path d="m127.1 6.5h1l-2-6.1c-3.1 0-6.3.2-9.6.6l1.9 5.9c2.9-.3 5.8-.4 8.7-.4z"/><path d="m131.9 43.3 2.3 6.9c2.9-1.4 5.8-2.6 8.7-3.5l-2.2-6.6c-3.4 1-6.3 2.1-8.8 3.2z"/><path d="m86.5 17-4.5-6.9c-2.5 1.3-5.1 2.7-7.8 4.3l4.6 7c2.6-1.6 5.1-3.1 7.7-4.4z"/><path d="m107 62 4.8 7.2c1.7-2.5 3.7-4.8 5.9-7.1l-4.5-6.8c-2.3 2.1-4.4 4.4-6.2 6.7z"/><path d="m92.5 94.2 8.1 6.4c.4-3.9 1.1-7.8 2.1-11.7l-7.2-5.7c-1.3 3.7-2.2 7.4-3 11z"/><path d="m48.7 46.7-7.1-6.2c-2.6 2.5-5.1 5-7.4 7.5l7.7 6.6c2.1-2.7 4.4-5.4 6.8-7.9z"/><path d="m18.5 91.4-11.5-4.2c-1.9 4.3-4 9.3-5 12l11.5 4.2c1.3-3.4 3.4-8.3 5-12z"/><path d="m91 119.6c.2 5.3.7 9.6 1.2 12.6l12 4.3c-.9-3.9-1.8-8.3-2.4-13z"/></g></svg>